<?xml version="1.0" encoding="UTF-8"?><svg id="Object" xmlns="http://www.w3.org/2000/svg" viewBox="0 0 642 420.85"><path d="m525.47,128.32c-2.7,0-5.37.1-8.03.28-8.97-52.09-54.36-91.73-109.01-91.73-24.99,0-48.05,8.29-66.57,22.27C321.84,23.83,283.92,0,240.43,0c-64.36,0-116.53,52.17-116.53,116.53,0,4.08.21,8.11.62,12.08-2.64-.18-5.31-.28-7.99-.28C52.17,128.32,0,180.5,0,244.85s52.17,116.53,116.53,116.53h408.95c64.36,0,116.53-52.17,116.53-116.53s-52.17-116.53-116.53-116.53Z" style="fill:#aad0e2;"/><path d="m525.47,128.32c-2.7,0-5.37.1-8.03.28-8.97-52.09-54.36-91.73-109.01-91.73-24.99,0-48.05,8.29-66.57,22.27C321.84,23.83,283.92,0,240.43,0c-64.36,0-116.53,52.17-116.53,116.53,0,4.08.21,8.11.62,12.08-2.64-.18-5.31-.28-7.99-.28C52.17,128.32,0,180.5,0,244.85s52.17,116.53,116.53,116.53h408.95c64.36,0,116.53-52.17,116.53-116.53s-52.17-116.53-116.53-116.53Z" style="fill:#fff;"/><path d="m287.71,25.83c-10.79-3.45-22.29-5.31-34.23-5.31-62.1,0-112.44,50.34-112.44,112.44,0,3.94.2,7.82.6,11.65-2.55-.17-5.12-.27-7.71-.27-62.1,0-112.44,50.34-112.44,112.44,0,20.4,5.44,39.52,14.93,56.01-4.29-50.73,3.39-147.59,124.99-145.22-1.24-33.12,4.63-136.97,126.31-141.74Z" style="fill:#fff;"/><path d="m172.87,361.38h352.6c64.36,0,116.53-52.17,116.53-116.53,0-13.74-2.4-26.92-6.77-39.16-76.62,150.9-335.75,137.54-462.36,155.69Z" style="fill:#fff;"/><polygon points="254.85 278.7 254.85 420.85 387.15 420.85 387.15 278.7 443.91 278.7 321 155.79 198.09 278.7 254.85 278.7"/></svg>