<?xml version="1.0" encoding="UTF-8"?><svg id="Ebene_1" xmlns="http://www.w3.org/2000/svg" viewBox="0 0 47.34 34.42"><path d="m6.63,26.01c.94,1.07,1.99,2.03,3.12,2.89,1.78,1.34,3.73,2.37,5.83,3.12.15.05.15.09.06.2-.52.69-1.04,1.38-1.56,2.08-.07.1-.15.13-.27.12-1.19-.05-2.36-.24-3.52-.51-2.46-.57-4.77-1.5-6.87-2.92-1.25-.84-2.37-1.82-3.37-2.95-.06-.06-.06-.13-.06-.21.07-1.11.17-2.21.28-3.31.12-1.16.28-2.32.47-3.47.59-3.59,1.45-7.11,2.72-10.52.74-2,1.6-3.95,2.69-5.79.18-.31.41-.56.71-.77,2.16-1.51,4.51-2.64,7.05-3.37C14.95.32,15.99.12,17.06,0c.11-.01.17.01.22.12.12.26.25.52.39.78.06.11.06.14-.08.17-1.28.3-2.54.69-3.75,1.2-1.89.8-3.61,1.88-5.18,3.19-.3.25-.59.5-.88.76-.03.03-.07.05-.08.1.07.02.12-.03.17-.06,1.51-.76,3.03-1.51,4.6-2.12,1.83-.71,3.71-1.24,5.65-1.56,2.27-.38,4.55-.49,6.85-.41,3.08.1,6.08.61,8.98,1.64,1.9.68,3.71,1.55,5.51,2.46.05.03.11.05.16.08.02,0,.04.03.05,0,0,0-.02-.02-.03-.03-.5-.48-1.04-.91-1.58-1.35-1.86-1.5-3.96-2.56-6.23-3.3-.7-.23-1.41-.43-2.12-.6-.1-.03-.12-.05-.07-.15.13-.25.27-.5.38-.76.06-.15.15-.17.3-.16.83.09,1.66.22,2.47.43,2.88.73,5.5,2.02,7.92,3.74.11.08.2.18.27.29.83,1.32,1.5,2.72,2.1,4.15.92,2.17,1.66,4.4,2.26,6.67.56,2.14,1,4.31,1.33,6.5.25,1.64.43,3.29.56,4.95.03.36.05.73.08,1.09,0,.11-.02.18-.09.26-1.84,2.08-4.07,3.6-6.62,4.68-1.6.68-3.26,1.14-4.97,1.43-.72.12-1.44.21-2.16.23-.1,0-.16-.02-.21-.1-.53-.71-1.06-1.42-1.6-2.13-.09-.12-.04-.14.06-.17,2.01-.71,3.88-1.68,5.6-2.94,1.23-.9,2.36-1.92,3.37-3.07.01-.02.03-.03.04-.05.02,0,.03,0,.05-.01h0s-.02-.01-.04-.01c-.03,0,0,.02,0,.03-.04-.04-.06,0-.08.02-.42.29-.84.59-1.27.88-1.92,1.26-3.97,2.24-6.16,2.94-1.48.47-2.99.81-4.53,1.04-2.25.33-4.52.42-6.79.32-2.99-.13-5.9-.64-8.72-1.65-2.27-.82-4.37-1.94-6.32-3.36-.07-.05-.15-.1-.23-.15-.02-.02-.04-.07-.08-.02,0-.01.02-.03,0-.03-.01,0-.02,0-.04.01,0,0,0,0,0,0,0,0,0,0,0,0,.01,0,.03.01.05.02l.04.05Zm6.28-6.71c.01.25.01.46.04.67.15,1.13.62,2.1,1.5,2.86,1.39,1.19,3.43,1.09,4.7-.22.7-.72,1.11-1.57,1.24-2.56.19-1.52-.19-2.86-1.28-3.96-1.36-1.38-3.57-1.35-4.91.04-.87.9-1.26,1.99-1.29,3.18Zm21.52.23c0-1.28-.34-2.28-1.04-3.13-.7-.85-1.6-1.33-2.71-1.34-1.11,0-2.01.48-2.72,1.32-.57.67-.91,1.46-1.01,2.33-.19,1.62.25,3.03,1.5,4.12,1.36,1.19,3.4,1.09,4.67-.21.89-.91,1.29-2.01,1.31-3.09ZM7.68,6.34s0,0-.01-.01c0,0,0,.01-.01.02,0,0,0,0,0,.01,0,0,0-.01.01-.02Z" style="fill:#fff;"/></svg>