<?xml version="1.0" encoding="UTF-8"?><svg id="Ebene_1" xmlns="http://www.w3.org/2000/svg" viewBox="0 0 40.1 32.08"><path d="m40.1,3.8c-1.47.64-3.06,1.08-4.72,1.27,1.7-1,3-2.59,3.62-4.48-1.59.93-3.35,1.6-5.23,1.97-1.5-1.57-3.64-2.56-6-2.56-4.54,0-8.23,3.63-8.23,8.1,0,.64.07,1.25.21,1.85-6.84-.34-12.9-3.56-16.96-8.46-.71,1.2-1.12,2.59-1.12,4.07,0,2.81,1.46,5.29,3.66,6.74-1.35-.04-2.62-.41-3.73-1.01v.1c0,1.04.2,2.02.56,2.94,1,2.54,3.27,4.46,6.04,5.01-.69.18-1.42.28-2.17.28-.53,0-1.04-.05-1.55-.15,1.05,3.22,4.09,5.56,7.68,5.62-2.82,2.17-6.36,3.47-10.22,3.47-.66,0-1.32-.04-1.96-.11,3.64,2.3,7.97,3.64,12.61,3.64,12.86,0,20.76-8.91,22.85-18.15.37-1.63.56-3.28.56-4.89,0-.35,0-.7-.02-1.05,1.61-1.14,3-2.57,4.1-4.19Z" style="fill:#fff;"/></svg>